<svg width="1024" height="1024" viewBox="0 0 1024 1024" xmlns="http://www.w3.org/2000/svg">
<rect x="0" y="0" width="1024" height="1024" opacity="1" fill="#FFFFFF" stroke="none"/>
<polygon opacity="1" fill="#0000FF" points="511,512 497,512 497,503 482,503 482,491 478,491 478,479 467,479 467,471 452,471 452,466 458,466 458,454 464,454 464,445 470,445 470,456 474,456 474,466 482,466 482,453 496,453 496,448 511,448 511,436 500,436 500,425 497,425 497,436 487,436 487,430 482,430 482,422 471,422 471,430 465,430 465,436 459,436 459,418 464,418 464,413 474,413 474,399 481,399 481,418 490,418 490,399 502,399 502,418 511,418 511,399 506,399 506,395 497,395 497,392 484,392 484,384 478,384 478,375 464,375 464,371 450,371 450,357 459,357 459,352 468,352 468,339 484,339 484,334 479,334 479,323 461,323 461,314 453,314 453,331 449,331 449,314 441,314 441,307 429,307 429,293 424,293 424,288 441,288 441,281 436,281 436,276 421,276 421,272 405,272 405,267 418,267 418,256 429,256 429,244 433,244 433,250 449,250 449,256 433,256 433,264 444,264 444,267 453,267 453,250 461,250 461,237 471,237 471,246 465,246 465,263 471,263 471,267 479,267 479,253 484,253 484,244 491,244 491,240 479,240 479,229 491,229 491,225 496,225 496,244 505,244 505,234 511,234 511,223 523,223 523,212 528,212 528,194 540,194 540,176 552,176 552,170 569,170 569,164 578,164 578,171 590,171 590,183 599,183 599,164 607,164 607,177 617,177 617,185 627,185 627,194 636,194 636,200 643,200 643,214 652,214 652,197 665,197 665,214 669,214 669,200 680,200 680,205 674,205 674,220 660,220 660,226 648,226 648,220 636,220 636,232 649,232 649,241 657,241 657,231 665,231 665,238 681,238 681,231 687,231 687,226 692,226 692,214 706,214 706,221 718,221 718,214 724,214 724,199 710,199 710,194 692,194 692,185 707,185 707,176 703,176 703,179 686,179 686,196 678,196 678,190 665,190 665,176 657,176 657,164 663,164 663,155 669,155 669,145 683,145 683,155 695,155 695,145 706,145 706,139 721,139 721,126 732,126 732,110 738,110 738,100 741,100 741,89 729,89 729,94 725,94 725,113 713,113 713,103 721,103 721,97 713,97 713,89 701,89 701,104 689,104 689,89 680,89 680,97 669,97 669,107 660,107 660,89 652,89 652,83 643,83 643,79 662,79 662,71 666,71 666,66 672,66 672,59 668,59 668,53 659,53 659,60 651,60 651,53 643,53 643,42 652,42 652,34 665,34 665,22 669,22 669,30 677,30 677,40 683,40 683,51 686,51 686,59 698,59 698,68 709,68 709,62 719,62 719,56 709,56 709,47 721,47 721,42 724,42 724,34 729,34 729,22 741,22 741,12 751,12 751,5 757,5 757,12 770,12 770,19 774,19 774,31 782,31 782,39 795,39 795,44 789,44 789,59 783,59 783,66 774,66 774,59 763,59 763,69 754,69 754,75 773,75 773,89 754,89 754,100 762,100 762,107 771,107 771,118 779,118 779,135 795,135 795,139 791,139 791,155 780,155 780,139 774,139 774,152 768,152 768,162 753,162 753,171 756,171 756,179 774,179 774,194 791,194 791,203 797,203 797,217 806,217 806,223 815,223 815,243 808,243 808,252 800,252 800,266 794,266 794,252 785,252 785,263 780,263 780,281 765,281 765,288 753,288 753,298 742,298 742,313 730,313 730,322 719,322 719,328 710,328 710,336 703,336 703,349 687,349 687,368 677,368 677,375 666,375 666,384 654,384 654,366 643,366 643,358 637,358 637,349 617,349 617,352 607,352 607,364 599,364 599,368 607,368 607,378 599,378 599,386 596,386 596,395 578,395 578,398 567,398 567,406 564,406 564,419 546,419 546,424 554,424 554,433 557,433 557,442 576,442 576,456 584,456 584,460 595,460 595,466 608,466 608,479 611,479 611,466 625,466 625,477 636,477 636,472 643,472 643,460 657,460 657,445 643,445 643,436 657,436 657,428 669,428 669,433 681,433 681,448 669,448 669,459 677,459 677,472 684,472 684,477 697,477 697,463 715,463 715,451 721,451 721,444 730,444 730,436 718,436 718,430 710,430 710,436 704,436 704,424 715,424 715,407 721,407 721,424 730,424 730,415 745,415 745,424 753,424 753,404 762,404 762,424 767,424 767,431 762,431 762,439 754,439 754,431 745,431 745,444 751,444 751,451 756,451 756,463 767,463 767,477 783,477 783,471 786,471 786,462 774,462 774,453 786,453 786,439 794,439 794,448 798,448 798,468 802,468 802,477 815,477 815,488 808,488 808,498 798,498 798,488 791,488 791,498 782,498 782,506 788,506 788,518 782,518 782,527 776,527 776,510 765,510 765,501 760,501 760,494 750,494 750,503 738,503 738,510 753,510 753,518 738,518 738,524 725,524 725,529 733,529 733,549 725,549 725,567 738,567 738,585 730,585 730,605 721,605 721,585 710,585 710,582 701,582 701,577 687,577 687,559 701,559 701,541 698,541 698,527 686,527 686,521 675,521 675,517 692,517 692,504 675,504 675,498 666,498 666,506 660,506 660,512 666,512 666,521 655,521 655,510 652,510 652,494 643,494 643,509 631,509 631,523 613,523 613,529 604,529 604,509 595,509 595,527 581,527 581,542 586,542 586,552 605,552 605,542 617,542 617,559 613,559 613,567 604,567 604,558 599,558 599,567 590,567 590,559 581,559 581,570 572,570 572,564 560,564 560,555 551,555 551,561 540,561 540,570 523,570 523,559 517,559 517,550 528,550 528,541 517,541 517,527 511,527 511,512 511,512 511,512 "/>
<circle cx="511" cy="512" r="5" opacity="1" fill="#FF0000" stroke="none" stroke-width="1"/>
<text x="521" y="512" dy="0.76em" text-anchor="start" font-family="sans-serif" font-size="12.096774193548388" opacity="1" fill="#FF0000">
Starting Point
</text>
</svg>
