<svg width="1024" height="1024" viewBox="0 0 1024 1024" xmlns="http://www.w3.org/2000/svg">
<rect x="0" y="0" width="1024" height="1024" opacity="1" fill="#FFFFFF" stroke="none"/>
<polygon opacity="1" fill="#0000FF" points="511,512 520,512 520,508 540,508 540,512 541,512 541,501 511,501 511,489 517,489 517,490 535,490 535,483 561,483 561,490 581,490 581,489 591,489 591,476 578,476 578,462 591,462 591,455 606,455 606,461 609,461 609,485 606,485 606,489 618,489 618,469 638,469 638,445 624,445 624,429 605,429 605,445 591,445 591,423 600,423 600,420 623,420 623,423 638,423 638,420 658,420 658,419 651,419 651,409 633,409 633,419 618,419 618,407 640,407 640,405 615,405 615,401 601,401 601,405 585,405 585,416 581,416 581,401 563,401 563,416 551,416 551,405 541,405 541,399 523,399 523,405 511,405 511,396 539,396 539,379 536,379 536,387 516,387 516,379 499,379 499,359 489,359 489,353 511,353 511,330 489,330 489,322 511,322 511,304 489,304 489,290 513,290 513,283 519,283 519,268 539,268 539,253 566,253 566,235 567,235 567,212 585,212 585,202 602,202 602,185 609,185 609,193 621,193 621,185 634,185 634,176 647,176 647,166 657,166 657,154 676,154 676,146 688,146 688,160 709,160 709,175 688,175 688,176 691,176 691,194 698,194 698,214 701,214 701,217 704,217 704,241 724,241 724,245 743,245 743,253 770,253 770,264 771,264 771,275 782,275 782,283 803,283 803,301 819,301 819,312 837,312 837,312 852,312 852,322 872,322 872,312 878,312 878,307 879,307 879,287 892,287 892,281 899,281 899,294 902,294 902,309 916,309 916,322 922,322 922,294 935,294 935,312 945,312 945,312 954,312 954,318 943,318 943,341 936,341 936,359 935,359 935,369 914,369 914,385 903,385 903,359 884,359 884,341 880,341 880,345 877,345 877,341 867,341 867,358 852,358 852,371 867,371 867,380 851,380 851,389 834,389 834,387 815,387 815,367 805,367 805,362 815,362 815,347 806,347 806,341 801,341 801,346 790,346 790,371 801,371 801,381 781,381 781,383 782,383 782,387 793,387 793,400 774,400 774,419 793,419 793,429 807,429 807,420 831,420 831,403 859,403 859,420 883,420 883,429 905,429 905,449 912,449 912,461 934,461 934,478 954,478 954,493 947,493 947,501 921,501 921,520 917,520 917,493 911,493 911,516 904,516 904,522 905,522 905,531 900,531 900,550 882,550 882,560 905,560 905,580 912,580 912,562 937,562 937,558 950,558 950,540 960,540 960,524 979,524 979,505 993,505 993,511 982,511 982,529 962,529 962,546 982,546 982,550 993,550 993,558 998,558 998,580 1018,580 1018,603 1013,603 1013,592 1003,592 1003,586 982,586 982,569 981,569 981,560 973,560 973,551 971,551 971,573 955,573 955,582 953,582 953,603 942,603 942,604 939,604 939,617 913,617 913,627 904,627 904,630 929,630 929,642 941,642 941,658 953,658 953,670 954,670 954,689 953,689 953,695 937,695 937,692 924,692 924,691 915,691 915,692 906,692 906,695 904,695 904,701 900,701 900,709 879,709 879,719 875,719 875,737 862,737 862,750 843,750 843,737 838,737 838,744 837,744 837,755 832,755 832,769 813,769 813,776 808,776 808,786 814,786 814,780 823,780 823,770 838,770 838,780 845,780 845,768 845,768 845,750 853,750 853,759 868,759 868,778 869,778 869,780 876,780 876,788 899,788 899,780 899,780 899,786 900,786 900,800 878,800 878,815 861,815 861,832 855,832 855,835 839,835 839,838 847,838 847,856 866,856 866,852 870,852 870,859 872,859 872,862 891,862 891,884 894,884 894,896 914,896 914,896 926,896 926,883 910,883 910,881 911,881 911,866 910,866 910,853 926,853 926,852 929,852 929,856 937,856 937,860 959,860 959,869 981,869 981,860 985,860 985,878 1010,878 1010,889 1012,889 1012,900 999,900 999,914 1012,914 1012,926 1007,926 1007,935 1004,935 1004,944 988,944 988,961 982,961 982,970 981,970 981,979 977,979 977,965 976,965 976,953 977,953 977,940 961,940 961,926 937,926 937,926 920,926 920,927 906,927 906,933 915,933 915,953 931,953 931,946 939,946 939,953 951,953 951,963 937,963 937,956 914,956 914,963 906,963 906,964 901,964 901,984 879,984 879,992 876,992 876,985 848,985 848,992 848,992 848,996 846,996 846,1011 839,1011 839,1019 831,1019 831,1019 822,1019 822,1019 804,1019 804,1000 798,1000 798,1010 799,1010 799,1018 798,1018 798,1019 790,1019 790,1019 779,1019 779,1016 758,1016 758,994 756,994 756,973 740,973 740,967 721,967 721,949 720,949 720,942 714,942 714,942 736,942 736,927 738,927 738,916 736,916 736,903 747,903 747,890 756,890 756,872 747,872 747,857 728,857 728,850 722,850 722,825 728,825 728,822 718,822 718,819 703,819 703,840 690,840 690,819 680,819 680,802 670,802 670,793 644,793 644,779 635,779 635,769 627,769 627,768 601,768 601,769 591,769 591,748 603,748 603,735 627,735 627,726 635,726 635,706 610,706 610,695 599,695 599,695 576,695 576,695 568,695 568,679 579,679 579,653 585,653 585,679 599,679 599,669 607,669 607,651 624,651 624,648 631,648 631,625 613,625 613,619 604,619 604,639 595,639 595,619 581,619 581,625 568,625 568,608 555,608 555,606 544,606 544,608 534,608 534,605 516,605 516,582 509,582 509,592 481,592 481,600 474,600 474,582 468,582 468,564 494,564 494,552 507,552 507,581 516,581 516,552 524,552 524,564 534,564 534,561 533,561 533,535 534,535 534,531 525,531 525,526 511,526 511,512 511,512 511,512 "/>
<circle cx="511" cy="512" r="5" opacity="1" fill="#FF0000" stroke="none" stroke-width="1"/>
<text x="521" y="512" dy="0.76em" text-anchor="start" font-family="sans-serif" font-size="12.096774193548388" opacity="1" fill="#FF0000">
Starting Point
</text>
</svg>
